<?xml version="1.0" encoding="utf-8"?>
<!-- Generator: Adobe Illustrator 20.1.0, SVG Export Plug-In . SVG Version: 6.00 Build 0)  -->
<svg version="1.1" id="Artwork" xmlns="http://www.w3.org/2000/svg" xmlns:xlink="http://www.w3.org/1999/xlink" x="0px" y="0px"
	 viewBox="0 0 218.2 56.4" style="enable-background:new 0 0 218.2 56.4;" xml:space="preserve">
<style type="text/css">
	.st0{fill:#F4CD00;}
	.st1{fill:#FFFFFF;}
</style>
<g>
	<polygon id="XMLID_445_" class="st0" points="47.4,32.6 40.9,32.6 37.7,27 40.9,21.4 47.4,21.4 50.6,27 	"/>
	<path id="XMLID_442_" class="st1" d="M33.4,17.6l0,19.1c0,3.8-3,6.8-6.8,6.8L0,43.5L0,0l4.6,0l0,10.7l21.9,0
		C30.3,10.7,33.4,13.8,33.4,17.6z M28.7,17.6c0-1.2-1-2.2-2.2-2.2l-19.6,0c-1.2,0-2.3,1-2.3,2.2l0,19.1c0,1.2,1,2.2,2.3,2.2l19.6,0
		c1.2,0,2.2-1,2.2-2.2L28.7,17.6z"/>
	<path id="XMLID_440_" class="st1" d="M88.3,17.6l0,25.9l-4.6,0l0-25.9c0-1.2-1-2.2-2.2-2.2l-19.6,0c-1.2,0-2.3,1-2.3,2.2l0,25.9
		l-4.6,0l0-43.5l4.6,0l0,10.7l21.9,0C85.2,10.7,88.3,13.8,88.3,17.6z"/>
	<path id="XMLID_438_" class="st1" d="M119.9,56.4l-20.4,0v-4.7l20.4,0c1.2,0,2.2-1,2.2-2.2v-6.1l-21.8,0c-3.8,0-6.8-3-6.8-6.8
		l0-25.8l4.6,0l0,25.8c0,1.2,1,2.2,2.2,2.2l19.6,0c1.2,0,2.2-1,2.2-2.2l0-25.8l4.6,0l0,38.7C126.8,53.4,123.8,56.4,119.9,56.4z"/>
	<path id="XMLID_436_" class="st1" d="M172.5,10.7l-18.1,32.7l-5.4,0c-6-11-12.1-21.8-18.1-32.7l5.4,0l15.4,28.2l15.4-28.2
		L172.5,10.7z"/>
	<path id="XMLID_407_" class="st1" d="M208.9,17.6l0,11.9l-28.7,0v7.2c0,1.2,1,2.2,2.2,2.2l26.5,0v4.6l-26.5,0c-3.8,0-6.8-3-6.8-6.8
		l0-19.1c0-3.8,3-6.8,6.8-6.8l19.6,0C205.8,10.7,208.9,13.8,208.9,17.6z M204.2,24.8l0-7.2c0-1.2-1-2.2-2.2-2.2l-19.6,0
		c-1.2,0-2.2,1-2.2,2.2v7.2L204.2,24.8z"/>
	<g id="XMLID_403_">
		<path id="XMLID_404_" class="st1" d="M213.1,11.1v0.7h-1.3V15l-0.8,0v-3.3l-1.3,0v-0.7L213.1,11.1z M217.4,15l-0.1-2.3
			c0-0.3,0-0.7,0-1.1h0c-0.1,0.4-0.2,0.8-0.3,1.2l-0.7,2.2h-0.8l-0.7-2.3c-0.1-0.3-0.2-0.8-0.3-1.1h0c0,0.4,0,0.7,0,1.1l-0.1,2.3
			h-0.8l0.3-4l1.2,0l0.7,1.9c0.1,0.3,0.2,0.6,0.3,1h0c0.1-0.4,0.2-0.7,0.3-1l0.7-2l1.1,0l0.3,4H217.4z"/>
	</g>
</g>
</svg>
